<svg xmlns="http://www.w3.org/2000/svg" role="img" viewBox="0 0 24 24" preserveAspectRatio="xMidYMid meet" focusable="false" width="100%" height="100%" fit="">
    <path d="M2,11.7C2,6.1,6.4,2,12,2s10,4.1,10,9.7s-4.4,9.7-10,9.7c-1,0-2-0.1-2.9-0.4c-0.2,0-0.4,0-0.5,0l-2,0.9c-0.4,0.2-0.9,0-1.1-0.4c0-0.1-0.1-0.2-0.1-0.3l-0.1-1.8c0-0.2-0.1-0.4-0.3-0.6C3.1,17,2,14.4,2,11.7z M8.9,9.9L6,14.5c-0.3,0.4,0.3,0.9,0.7,0.6l3.2-2.4c0.2-0.2,0.5-0.2,0.7,0l2.3,1.7c0.7,0.5,1.7,0.3,2.2-0.4L18,9.5c0.3-0.4-0.3-0.9-0.7-0.6l-3.2,2.4c-0.2,0.2-0.5,0.2-0.7,0l-2.3-1.7C10.4,9,9.5,9.1,9,9.8C9,9.8,9,9.8,8.9,9.9z"/>
</svg>
