<svg xmlns="http://www.w3.org/2000/svg" role="img" viewBox="0 0 24 24" preserveAspectRatio="xMidYMid meet" focusable="false" width="100%" height="100%" fit="">
    <path d="M12,2.2c-5.5,0-10,4.5-10,10c0,4.4,2.9,8.2,6.8,9.5c0.5,0.1,0.7-0.2,0.7-0.5c0-0.2,0-0.9,0-1.7c-2.8,0.6-3.4-1.3-3.4-1.3C5.7,17.1,5,16.7,5,16.7c-0.9-0.6,0.1-0.6,0.1-0.6c1,0.1,1.5,1,1.5,1C7.5,18.7,9,18.3,9.5,18c0.1-0.6,0.3-1.1,0.6-1.3c-2.2-0.3-4.6-1.1-4.6-4.9c0-1.1,0.4-2,1-2.7C6.5,8.8,6.2,7.8,6.7,6.4c0,0,0.8-0.3,2.7,1c0.8-0.2,1.7-0.3,2.5-0.3c0.8,0,1.7,0.1,2.5,0.3c1.9-1.3,2.7-1,2.7-1c0.5,1.4,0.2,2.4,0.1,2.6c0.6,0.7,1,1.6,1,2.7c0,3.8-2.3,4.7-4.6,4.9c0.3,0.3,0.7,0.9,0.7,1.8c0,1.3,0,2.4,0,2.7c0,0.3,0.2,0.6,0.7,0.5c4-1.3,6.9-5.1,6.9-9.5C22,6.7,17.5,2.2,12,2.2"/>
</svg>
