<svg xmlns="http://www.w3.org/2000/svg" role="img" viewBox="0 0 512 512" preserveAspectRatio="xMidYMid meet" focusable="false" width="100%" height="100%" fit="">
    <g>
        <g>
            <rect x="121.61" y="300.8" width="154.76" height="44.8"/>
            <polygon points="32.01 323.2 121.61 412.8 121.61 233.6 32.01 323.2"/>
        </g>
        <g>
            <polygon points="479.99 188.8 390.39 278.4 390.39 99.2 479.99 188.8"/>
            <rect x="235.64" y="166.4" width="154.76" height="44.8" transform="translate(626.03 377.6) rotate(180)"/>
        </g>
        <path d="M448.83,407.85q0,72.13-67.22,72.13-65.21,0-65.19-70.45V317.08h36.16V410q0,38.86,30.37,38.86,29.82,0,29.82-37.52V317.08h36.06Z"/>
        <path d="M194.38,194.92H63.17V173.79L146.67,61.9H69.19V32h125V52.58L112.47,165.16h81.91Z"/>
    </g>
</svg>
