<svg xmlns="http://www.w3.org/2000/svg" role="img" viewBox="0 0 24 24" preserveAspectRatio="xMidYMid meet" focusable="false" width="100%" height="100%" fit="">
    <path d="M13.5,12.7c-0.1,0.4-0.2,0.8-0.1,1.3c0.1,0.1,0.7,1.3,0.7,1.3s0.1,0.2,0.2,0.3c0,0.1,0,0.3-0.2,0.6c0,0-0.5,0.6-0.3,1.2l0.7,0.7c0,0,0.2,1,0.4,1.5c0,0,0.4,0.8,0.3,0.9c0,0-0.4,1-0.7,1.5h4.3l2.7-4.6l-2.7-4.6h-5.3V12.7z" />
    <path d="M14.1,20.4c0.2-0.2,0.1-1.4-0.2-1.6l-0.2-0.6l-0.3-0.1L13.1,17L13,15.3l-0.8-0.6l-1.5,2.6l2.7,4.6h0.7C14.1,21.5,14,20.6,14.1,20.4z" />
    <path d="M9.1,15.6c0,0,0.7-1.9-0.3-3.2c0,0-0.4,0-0.6-0.4c0,0,0.1-0.1,0.2-0.3c0,0-0.3-0.7-1.6-1.5V9.7c0-0.1,0.1-0.3,0.3-0.3h0.1V9.1c0-0.2,0.1-0.3,0.3-0.3h0.2V8.1c0-0.2,0.2-0.3,0.3-0.3V7.6H5l-2.7,4.6L5,16.9h5.3l0.8-1.3L10.5,16C10.5,16,9.5,15.8,9.1,15.6z" />
    <path d="M14,2.5c0,0,0.4,1,0,2.2c0,0-1.2,1.1-0.9,2c0,0,1.1-0.6,1.2-0.2l0.3,0.8c0,0,0.4,0.1,0.6,0.3c0,0-0.1,0.9-0.2,0.9c0.1,0,0.5-0.2,0.6,0c0,0,0.5,0.6,0.4,0.7h0.7c0,0,0.7-0.3,0.2,0.3c0,0-0.5,0.7-1.2,1.2c0,0-0.3,0.3-0.6,0.5H19l2.7-4.6L19,2h-5.3c0.1,0.1,0.2,0.3,0.2,0.6H14V2.5z" />
</svg>
